<svg xmlns="http://www.w3.org/2000/svg" width="35.032" height="35.036" viewBox="0 0 35.032 35.036"><defs><style>.a{fill:#fff;}</style></defs><path class="a" d="M30.642,35.036H5.256A5.261,5.261,0,0,1,0,29.78V9A1.991,1.991,0,0,1,1.983,7.009H7.007V4.087A4.1,4.1,0,0,1,11.1,0H30.642a4.391,4.391,0,0,1,4.389,4.382V30.656A4.39,4.39,0,0,1,30.642,35.036ZM11.1,3.506a.58.58,0,0,0-.591.581V29.78a5.344,5.344,0,0,1-.294,1.751H30.642a.882.882,0,0,0,.887-.876V4.382a.882.882,0,0,0-.887-.876Zm-7.6,7V29.78a1.752,1.752,0,0,0,3.5,0V10.511H3.5ZM26.274,26.276H15.765a1.751,1.751,0,0,1,0-3.5H26.274a1.751,1.751,0,1,1,0,3.5Zm0-7H15.765a1.752,1.752,0,0,1,0-3.5H26.274a1.752,1.752,0,1,1,0,3.5Zm0-7.007H15.765a1.752,1.752,0,0,1,0-3.5H26.274a1.752,1.752,0,1,1,0,3.5Z"/></svg>