<svg xmlns="http://www.w3.org/2000/svg" width="31" height="34.6" viewBox="0 0 31 34.6"><defs><style>.a{fill:#acb9c1;}</style></defs><path class="a" d="M15.5,34.6a4.967,4.967,0,0,1-2.274-.553L2.894,28.795A5.517,5.517,0,0,1,0,24.1V5.252A5.347,5.347,0,0,1,5.167,0H25.833A5.092,5.092,0,0,1,29.5,1.538,5.273,5.273,0,0,1,31,5.252V24.1a5.069,5.069,0,0,1-2.894,4.7L17.774,34.047A4.968,4.968,0,0,1,15.5,34.6ZM5.167,3.5a1.771,1.771,0,0,0-1.654,1.75V24.1a1.769,1.769,0,0,0,1.032,1.564l10.128,5.252a2.49,2.49,0,0,0,.9.184,1.467,1.467,0,0,0,.749-.184l10.332-5.252a2.026,2.026,0,0,0,.828-1.564V5.252A1.63,1.63,0,0,0,25.833,3.5Zm9.679,17.506h0a1.823,1.823,0,0,1-1.413-.662l-2.686-3.5a1.864,1.864,0,0,1,.206-2.459,1.9,1.9,0,0,1,1.115-.378,1.743,1.743,0,0,1,1.364.663l1.241,1.7,3.72-5.142a1.793,1.793,0,0,1,2.479-.383,1.862,1.862,0,0,1,.413,2.446l-5.165,7a1.516,1.516,0,0,1-1.241.718Z"/></svg>