<svg xmlns="http://www.w3.org/2000/svg" width="47.6" height="42.941" viewBox="0 0 47.6 42.941"><defs><style>.a{fill:#89d6c7;}</style></defs><path class="a" d="M43.014,42.941H4.875A4.888,4.888,0,0,1,0,38.171V14.312a4.888,4.888,0,0,1,4.875-4.77h9.464V7.157A7.127,7.127,0,0,1,21.506,0h4.875A7.351,7.351,0,0,1,33.55,7.157V9.542h9.464a4.631,4.631,0,0,1,4.586,4.77V38.171A4.631,4.631,0,0,1,43.014,42.941ZM4.875,31.014v7.157H43.014V31.014ZM23.8,19.087a2.491,2.491,0,0,1,2.581,2.385v4.772H43.014V14.312H4.875V26.244h16.63V21.472A2.433,2.433,0,0,1,23.8,19.087ZM21.506,4.77a2.246,2.246,0,0,0-2.294,2.387V9.542h9.464V7.157A2.443,2.443,0,0,0,26.381,4.77Z"/></svg>