<svg xmlns="http://www.w3.org/2000/svg" width="46.6" height="32.62" viewBox="0 0 46.6 32.62"><defs><style>.a{fill:#4a9cb4;}</style></defs><path class="a" d="M7.019,32.62A7.187,7.187,0,0,1,0,25.632a7.188,7.188,0,0,1,7.019-6.991,6.99,6.99,0,1,1,0,13.979Zm0-9.318a2.331,2.331,0,0,0,0,4.659,2.337,2.337,0,1,0,0-4.659Zm37.337,4.659h-23.3a2.331,2.331,0,0,1,0-4.659h23.3A2.189,2.189,0,0,1,46.6,25.632,2.189,2.189,0,0,1,44.356,27.961ZM5.385,11.648H5.334a2.142,2.142,0,0,1-1.685-.836L.561,7.317a2.465,2.465,0,0,1,.28-3.282,2.659,2.659,0,0,1,1.575-.541,2.333,2.333,0,0,1,1.795.839L5.334,5.781,10.106.755A2.22,2.22,0,0,1,11.787,0a2.75,2.75,0,0,1,1.687.614,2.456,2.456,0,0,1,0,3.29L7.019,10.892A2.04,2.04,0,0,1,5.385,11.648Zm38.971-2.33h-23.3a2.38,2.38,0,0,1-2.246-2.329,2.38,2.38,0,0,1,2.246-2.329h23.3A2.189,2.189,0,0,1,46.6,6.988,2.189,2.189,0,0,1,44.356,9.318Z" transform="translate(0 0)"/></svg>