<svg xmlns="http://www.w3.org/2000/svg" width="29.6" height="29.601" viewBox="0 0 29.6 29.601"><defs><style>.a{fill:#b5b5b5;}</style></defs><path class="a" d="M14.8,29.6A14.7,14.7,0,0,1,4.391,25.266,14.8,14.8,0,0,1,14.8,0,14.808,14.808,0,0,1,25.276,25.266,14.7,14.7,0,0,1,14.8,29.6Zm0-26.642A11.655,11.655,0,0,0,6.508,6.427a11.818,11.818,0,0,0,0,16.744A11.656,11.656,0,0,0,14.8,26.639a11.84,11.84,0,1,0,0-23.68Zm4.525,17.76a1.837,1.837,0,0,1-1.137-.433L14.8,16.893l-3.388,3.392a1.326,1.326,0,0,1-1.961,0,1.29,1.29,0,0,1,0-2.093L12.839,14.8,9.451,11.407a1.291,1.291,0,0,1,0-2.094,1.326,1.326,0,0,1,1.961,0L14.8,12.706l3.388-3.394a1.836,1.836,0,0,1,1.137-.433,1.353,1.353,0,0,1,1,.433,1.569,1.569,0,0,1,0,2.094L16.941,14.8l3.388,3.394a1.569,1.569,0,0,1,0,2.093A1.353,1.353,0,0,1,19.325,20.719Z"/></svg>