<svg xmlns="http://www.w3.org/2000/svg" width="30" height="31.537" viewBox="0 0 30 31.537"><defs><style>.a{fill:#48ac98;}</style></defs><path class="a" d="M18.852,31.537h-7.8a1.524,1.524,0,0,1-1.52-1.144L8.389,26.227l-3.425.557a1.272,1.272,0,0,1-.235.021,1.364,1.364,0,0,1-1.287-.8L.207,20.493A1.719,1.719,0,0,1,.4,18.6l2.854-2.83L.4,12.941A1.474,1.474,0,0,1,.207,11.2L2.49,5.686a1.477,1.477,0,0,1,1.467-.955,1.841,1.841,0,0,1,.245.016l4.186.592,1.142-4.2A1.523,1.523,0,0,1,11.051,0h7.8a1.525,1.525,0,0,1,1.522,1.144l1.332,4.2,4.185-.592a1.079,1.079,0,0,1,.19-.016,1.431,1.431,0,0,1,1.332.955L29.886,11.2a1.531,1.531,0,0,1-.38,1.737l-2.853,2.826,2.853,2.83a1.441,1.441,0,0,1,.19,1.9L26.654,26.01a1.635,1.635,0,0,1-1.419.8,2.1,2.1,0,0,1-.293-.021l-3.234-.557-1.332,4.167A1.544,1.544,0,0,1,18.852,31.537ZM9.4,22.864a1.923,1.923,0,0,1,1.648,1.144l1.142,4.375H17.71l1.332-4.375A1.519,1.519,0,0,1,20.5,22.864a1.469,1.469,0,0,1,.253.022l3.615.607,2.092-3.52-3.043-3.091a1.373,1.373,0,0,1,0-2.229l3.043-3.185-1.33-3.428-4.377.617a1.512,1.512,0,0,1-.222.016,1.545,1.545,0,0,1-1.491-1.145L17.71,3.153H12.193L11.051,7.528A1.768,1.768,0,0,1,9.416,8.673a2.281,2.281,0,0,1-.267-.016L4.964,8.039,3.442,11.467l3.234,3.185a1.67,1.67,0,0,1,0,2.229L3.632,19.973l1.9,3.52,3.615-.607A1.477,1.477,0,0,1,9.4,22.864Zm5.645-.788a6.225,6.225,0,0,1-4.495-1.848,6.467,6.467,0,0,1,0-8.92A6.225,6.225,0,0,1,15.048,9.46a6.308,6.308,0,0,1,0,12.616Zm0-9.462a3.237,3.237,0,0,0-3.234,3.153,3.238,3.238,0,0,0,3.234,3.154,3.068,3.068,0,0,0,3.044-3.154A3.067,3.067,0,0,0,15.048,12.614Z" transform="translate(0)"/></svg>