<svg xmlns="http://www.w3.org/2000/svg" width="42.602" height="34.281" viewBox="0 0 42.602 34.281"><defs><style>.a{fill:#4A9CB4;}</style></defs><path class="a" d="M37.634,34.281H4.968a4.025,4.025,0,0,1-3.85-3.248l-1-4.286a4.508,4.508,0,0,1,.843-3.823,3.836,3.836,0,0,1,3-1.5h.282v-15A6.416,6.416,0,0,1,10.638,0h21.3a6.416,6.416,0,0,1,6.39,6.428v15h.282a3.87,3.87,0,0,1,3.034,1.508,4.5,4.5,0,0,1,.841,3.815l-1,4.286A4.025,4.025,0,0,1,37.634,34.281ZM3.966,25.712h0l1,4.284H37.634l.975-4.284H28.266c-.016,0-.11.019-.383.23a6.992,6.992,0,0,0-.949.9l-.155.153a7.345,7.345,0,0,1-5.492,1.93,7.306,7.306,0,0,1-5.464-1.93l-.155-.153c-.1-.1-.185-.186-.267-.27a5.74,5.74,0,0,0-.682-.629c-.273-.21-.369-.228-.386-.23H3.966ZM10.638,4.284A2.139,2.139,0,0,0,8.508,6.428v15h5.825a4.358,4.358,0,0,1,2.7,1.034,11.459,11.459,0,0,1,1.245,1.134l.166.167.127.137c.21.224.9.743,2.721.743,1.847,0,2.536-.52,2.746-.743l.129-.137.169-.171a12.913,12.913,0,0,1,1.217-1.13,4.441,4.441,0,0,1,2.693-1.034h5.827v-15a2.14,2.14,0,0,0-2.132-2.144Z" transform="translate(0)"/></svg>