<svg xmlns="http://www.w3.org/2000/svg" width="34.6" height="34.601" viewBox="0 0 34.6 34.601"><defs><style>.a{fill:#4A9CB4;}</style></defs><path class="a" d="M23.678,34.6a10.869,10.869,0,0,1-6.044-1.823H5.461A5.468,5.468,0,0,1,0,27.316V5.462A5.468,5.468,0,0,1,5.461,0h14.57a5.468,5.468,0,0,1,5.461,5.462V12.9a10.927,10.927,0,0,1-1.814,21.7Zm0-18.21a7.283,7.283,0,1,0,7.275,7.282A7.3,7.3,0,0,0,23.678,16.391ZM5.461,3.643a1.829,1.829,0,0,0-1.835,1.82V27.316a1.83,1.83,0,0,0,1.835,1.821H14.2a11.041,11.041,0,0,1-1.459-5.464A10.928,10.928,0,0,1,21.843,12.9V5.462a1.818,1.818,0,0,0-1.812-1.82h-9.11v1.82a1.823,1.823,0,0,1-3.647,0V3.643ZM23.219,28.227a1.788,1.788,0,0,1-1.4-.656L19.99,25.385a1.818,1.818,0,0,1,.229-2.564A1.87,1.87,0,0,1,21.4,22.4a1.773,1.773,0,0,1,1.385.655l.043.045,1.5-2.971a1.818,1.818,0,0,1,3.356.251,1.791,1.791,0,0,1-.1,1.379L24.845,27.22a1.83,1.83,0,0,1-1.416.994A1.8,1.8,0,0,1,23.219,28.227ZM9.11,21.853a1.83,1.83,0,0,1-1.835-1.821V18.21a1.823,1.823,0,0,1,3.647,0v1.821A1.819,1.819,0,0,1,9.11,21.853Zm0-7.284a1.83,1.83,0,0,1-1.835-1.821V10.925a1.823,1.823,0,0,1,3.647,0v1.823A1.819,1.819,0,0,1,9.11,14.57Z"/></svg>