<svg xmlns="http://www.w3.org/2000/svg" width="30" height="33.176" viewBox="0 0 30 33.176"><defs><style>.a{fill:#8ba7b9;}</style></defs><path class="a" d="M15,33.176A15.135,15.135,0,0,1,4.4,28.72,16,16,0,0,1,0,18.047,15.653,15.653,0,0,1,4.4,7.476,1.639,1.639,0,0,1,5.6,7a1.639,1.639,0,0,1,1.2.48,1.769,1.769,0,0,1,0,2.358,11.736,11.736,0,0,0-3.4,8.213,12.046,12.046,0,0,0,3.4,8.316A11.72,11.72,0,0,0,15,29.839a12.117,12.117,0,0,0,8.2-3.477,11.671,11.671,0,0,0,3.4-8.2,12.074,12.074,0,0,0-3.4-8.334,1.769,1.769,0,0,1,0-2.358,1.5,1.5,0,0,1,2.2,0A15.357,15.357,0,0,1,30,18.167,15.065,15.065,0,0,1,25.4,28.72,14.771,14.771,0,0,1,15,33.176Zm0-16.507a1.56,1.56,0,0,1-1.6-1.66V1.658A1.56,1.56,0,0,1,15,0a1.7,1.7,0,0,1,1.6,1.658v13.35A1.7,1.7,0,0,1,15,16.669Z"/></svg>