<svg xmlns="http://www.w3.org/2000/svg" width="201.234" height="67.081" viewBox="0 0 201.234 67.081"><defs><style>.a{fill:#2d2b41;}.b{fill:#48ac98;}</style></defs><g transform="translate(-333.541 -485.779)"><path class="a" d="M339.642,514.36V486.746h5.569v22.735h14.727v4.879Z" transform="translate(-2.327 -0.369)"/><path class="a" d="M395.26,502.9H383.478v6.581h15.877v4.879H377.909V486.746h21.446v4.879H383.478v6.719H395.26Z" transform="translate(-13.58 -0.369)"/><path class="a" d="M444.764,514.36H443.43l-18.5-16.844V514.36H419.36V486.746h1.381l18.5,16.476v-16.43h5.523Z" transform="translate(-26.048 -0.369)"/><path class="a" d="M478.9,514.36H468.035V486.746H478.9c9.067,0,14.681,5.707,14.681,13.807S487.963,514.36,478.9,514.36ZM473.6,491.625v17.856h4.924c5.339,0,9.3-3.129,9.3-8.928s-3.958-8.928-9.3-8.928Z" transform="translate(-41.27 -0.369)"/><path class="a" d="M522.063,514.36h-5.569V486.746h5.569Z" transform="translate(-56.411 -0.369)"/><path class="a" d="M559.507,514.36h-1.334l-18.5-16.844V514.36H534.1V486.746h1.38l18.5,16.476v-16.43h5.523Z" transform="translate(-59.785 -0.369)"/><path class="a" d="M595.544,497.975h13.807v2.715c0,8.193-4.51,13.9-13.116,13.9-9.067,0-14.589-6.443-14.589-14.4s5.568-14.405,14.682-14.405c7.225,0,10.309,3.5,10.309,3.5l-3.267,4.234a11.619,11.619,0,0,0-7.134-2.393c-5.247,0-8.836,3.82-8.836,9.067s3.544,9.113,8.79,9.113c4.464,0,7.134-2.808,7.272-6.4v-.368h-7.916Z" transform="translate(-74.575)"/><path class="a" d="M347.716,545.485h.966L362.9,573.1H356.6l-1.8-3.774H341.6l-1.749,3.774h-6.305Zm.644,10.079h-.368l-4.188,9.021-.323.6h9.39l-.323-.6Z" transform="translate(0 -22.773)"/><path class="a" d="M393.731,573.1H382.869V545.485h10.862c9.067,0,14.681,5.707,14.681,13.807S402.8,573.1,393.731,573.1Zm-5.293-22.735V568.22h4.925c5.338,0,9.3-3.129,9.3-8.928s-3.958-8.928-9.3-8.928Z" transform="translate(-14.636 -22.773)"/><path class="b" d="M441.427,562.25h.545l2.669-6.209,6.972-14.652h7.463L442.244,574.07h-1.2l-9.7-18.029h7.408Z" transform="translate(-29.785 -21.211)"/><path class="a" d="M486.8,573.1h-5.569V545.485H486.8Z" transform="translate(-47.138 -22.773)"/><path class="a" d="M498.253,565.55a15.339,15.339,0,0,0,8.146,2.669c3.359,0,4.694-1.334,4.694-3.083,0-1.8-1.2-2.715-5.984-4.05-6.259-1.749-9.526-3.958-9.526-8.376,0-4.924,3.682-8.192,10.77-8.192,7.409,0,10.447,2.853,10.447,2.853l-2.992,4.556a12.992,12.992,0,0,0-7.455-2.3c-3.038,0-4.511,1.058-4.511,2.761,0,1.657,1.426,2.393,5.753,3.59,6.765,1.8,9.849,4.189,9.849,8.653,0,4.832-3.359,8.7-10.907,8.7-7.594,0-11.321-3.544-11.321-3.544Z" transform="translate(-49.131 -22.404)"/><path class="a" d="M533.31,558.923c0-7.962,5.568-14.4,14.589-14.4,9.067,0,14.635,6.443,14.635,14.4s-5.568,14.4-14.635,14.4C538.878,573.328,533.31,566.885,533.31,558.923Zm23.517,0a8.692,8.692,0,0,0-8.929-9.067c-5.155,0-8.836,3.82-8.836,9.067s3.682,9.067,8.836,9.067A8.692,8.692,0,0,0,556.827,558.923Z" transform="translate(-60.318 -22.404)"/><path class="a" d="M585.762,545.485h12.473c6.995,0,11.321,3.452,11.321,9.48a8.8,8.8,0,0,1-5.2,8.423v.414l6.581,8.744v.552h-6.305l-6.121-8.422h-7.179V573.1h-5.569Zm12.288,4.879h-6.719v9.618h6.858c3.5,0,5.614-1.564,5.614-4.787C603.8,552.02,601.64,550.364,598.05,550.364Z" transform="translate(-76.981 -22.773)"/></g></svg>