<?xml version="1.0" encoding="UTF-8"?>
<svg width="1536px" height="1042px" viewBox="0 0 1536 1042" version="1.1" xmlns="http://www.w3.org/2000/svg" xmlns:xlink="http://www.w3.org/1999/xlink">
    <title>Group</title>
    <g id="Page-1" stroke="none" stroke-width="1" fill="none" fill-rule="evenodd">
        <g id="Group" fill="#F0F4F7">
            <rect id="Rectangle" x="0" y="0" width="268" height="60"></rect>
            <rect id="Rectangle" x="0" y="174" width="1536" height="60"></rect>
            <rect id="Rectangle" x="0" y="247" width="1536" height="61"></rect>
            <rect id="Rectangle" x="0" y="320" width="1536" height="61"></rect>
            <rect id="Rectangle" x="0" y="394" width="1536" height="61"></rect>
            <rect id="Rectangle" x="0" y="468" width="1536" height="59"></rect>
            <rect id="Rectangle" x="0" y="540" width="1536" height="62"></rect>
            <rect id="Rectangle" x="0" y="614" width="1536" height="62"></rect>
            <rect id="Rectangle" x="0" y="689" width="1536" height="59"></rect>
            <rect id="Rectangle" x="0" y="761" width="1536" height="61"></rect>
            <rect id="Rectangle" x="0" y="835" width="1536" height="61"></rect>
            <rect id="Rectangle" x="0" y="908" width="1536" height="61"></rect>
            <rect id="Rectangle" x="0" y="982" width="1536" height="60"></rect>
            <rect id="Rectangle" x="985" y="0" width="267" height="60"></rect>
            <rect id="Rectangle" x="1268" y="0" width="268" height="60"></rect>
        </g>
    </g>
</svg>