<?xml version="1.0" encoding="UTF-8"?>
<svg width="2241px" height="101px" viewBox="0 0 2241 101" version="1.1" xmlns="http://www.w3.org/2000/svg" xmlns:xlink="http://www.w3.org/1999/xlink">
    <title>Group</title>
    <g id="Page-1" stroke="none" stroke-width="1" fill="none" fill-rule="evenodd">
        <g id="Group" fill="#F0F4F7">
            <rect id="Rectangle" x="0" y="0" width="148" height="100"></rect>
            <rect id="Rectangle" x="158" y="0" width="148" height="100"></rect>
            <rect id="Rectangle" x="0" y="0" width="148" height="100"></rect>
            <rect id="Rectangle" x="316" y="0" width="148" height="100"></rect>
            <rect id="Rectangle" x="474" y="0" width="148" height="100"></rect>
            <rect id="Rectangle" x="316" y="0" width="148" height="100"></rect>
            <rect id="Rectangle" x="632" y="0" width="148" height="100"></rect>
            <rect id="Rectangle" x="790" y="0" width="148" height="100"></rect>
            <rect id="Rectangle" x="632" y="0" width="148" height="100"></rect>
            <rect id="Rectangle" x="948" y="0" width="148" height="100"></rect>
            <rect id="Rectangle" x="1106" y="0" width="148" height="100"></rect>
            <rect id="Rectangle" x="948" y="0" width="148" height="100"></rect>
            <rect id="Rectangle" x="1263.57275" y="0.257548704" width="148" height="100"></rect>
            <rect id="Rectangle" x="1421.57275" y="0.257548704" width="148" height="100"></rect>
            <rect id="Rectangle" x="1580" y="0" width="148" height="100"></rect>
            <rect id="Rectangle" x="1737.57275" y="0.257548704" width="148" height="100"></rect>
            <rect id="Rectangle" x="1895.57275" y="0.257548704" width="345" height="100"></rect>
        </g>
    </g>
</svg>